<?xml version="1.0" standalone="no"?>
<!DOCTYPE svg PUBLIC "-//W3C//DTD SVG 20010904//EN"
 "http://www.w3.org/TR/2001/REC-SVG-20010904/DTD/svg10.dtd">
<svg version="1.0" xmlns="http://www.w3.org/2000/svg"
 width="348.000000pt" height="93.000000pt" viewBox="0 0 348.000000 93.000000"
 preserveAspectRatio="xMidYMid meet">

<g transform="translate(0.000000,93.000000) scale(0.100000,-0.100000)"
fill="#000000" stroke="none">
<path d="M10 781 c0 -144 10 -184 58 -234 32 -34 92 -67 122 -67 35 0 22 -17
-18 -24 -79 -12 -162 -105 -162 -179 l0 -27 441 0 441 0 -7 33 c-20 94 -101
167 -188 167 -25 0 -49 4 -52 10 -4 6 11 10 37 10 58 1 118 29 155 75 30 36
57 110 47 127 -3 4 -58 8 -122 8 l-117 0 -18 45 c-24 57 -111 137 -174 161
-38 14 -89 18 -245 22 l-198 4 0 -131z m373 -98 c4 -3 -11 -14 -33 -24 -49
-22 -87 -61 -111 -114 l-18 -40 0 93 -1 92 78 0 c43 0 82 -3 85 -7z"/>
<path d="M1935 783 c-38 -10 -65 -44 -65 -83 0 -44 19 -64 83 -86 25 -8 48
-22 51 -30 8 -22 -24 -31 -39 -11 -8 11 -27 17 -54 17 -35 0 -41 -3 -41 -20 0
-12 12 -32 26 -45 23 -21 37 -25 89 -25 51 0 65 4 83 23 52 55 34 110 -48 143
-30 12 -56 29 -58 38 -4 17 23 22 33 6 3 -5 26 -10 51 -10 36 0 44 3 44 18 0
45 -90 83 -155 65z"/>
<path d="M1050 641 l0 -141 80 0 c130 0 180 39 180 141 0 53 -3 63 -34 97
l-34 37 -96 3 -96 4 0 -141z m134 65 c68 -28 52 -127 -22 -134 l-32 -3 0 69
c0 61 4 82 17 82 2 0 19 -6 37 -14z"/>
<path d="M1500 640 l0 -140 90 0 90 0 0 30 c0 29 -1 30 -50 30 -47 0 -50 2
-50 25 0 23 4 25 45 25 43 0 45 1 45 30 0 29 -2 30 -45 30 -41 0 -45 2 -45 25
0 23 3 25 50 25 49 0 50 1 50 30 l0 30 -90 0 -90 0 0 -140z"/>
<path d="M2290 640 l0 -140 40 0 40 0 0 140 0 140 -40 0 -40 0 0 -140z"/>
<path d="M2619 763 c-41 -25 -59 -64 -59 -128 0 -54 3 -60 40 -97 l40 -40 70
4 c60 3 73 7 100 33 25 24 30 36 30 77 l0 48 -75 0 -75 0 0 -30 c0 -28 3 -30
35 -30 40 0 47 -17 10 -26 -40 -10 -71 3 -85 36 -25 60 31 123 81 91 24 -14
109 -15 109 0 0 6 -15 26 -34 45 -32 32 -38 34 -97 34 -41 0 -73 -6 -90 -17z"/>
<path d="M3040 640 l0 -140 40 0 40 0 0 65 c0 36 3 65 8 65 4 0 26 -30 50 -65
41 -64 43 -65 87 -65 l45 0 0 140 0 140 -45 0 -44 0 -3 -67 -3 -68 -45 67
c-44 66 -46 68 -87 68 l-43 0 0 -140z"/>
<path d="M1095 388 c-32 -17 -45 -39 -45 -78 0 -43 16 -60 83 -89 27 -12 47
-27 47 -36 0 -19 -29 -20 -36 0 -4 10 -20 15 -51 15 -42 0 -44 -1 -41 -27 7
-58 110 -91 178 -56 71 37 66 113 -10 150 -77 38 -84 43 -71 56 8 8 14 8 23
-1 7 -7 31 -12 55 -12 44 0 51 8 37 45 -15 38 -121 60 -169 33z"/>
<path d="M2065 386 c-42 -19 -65 -48 -76 -96 -27 -120 70 -213 189 -180 41 10
92 58 92 86 0 20 -93 19 -110 -1 -30 -37 -80 -1 -80 57 0 55 51 89 80 53 8
-10 30 -15 61 -15 56 0 62 11 27 55 -40 51 -120 69 -183 41z"/>
<path d="M2770 381 c-46 -24 -74 -73 -74 -130 0 -61 28 -106 79 -131 52 -25
88 -25 143 0 77 35 105 150 55 219 -43 58 -137 78 -203 42z m114 -76 c22 -22
28 -49 16 -79 -25 -67 -110 -51 -110 21 0 62 56 96 94 58z"/>
<path d="M1310 250 l0 -140 100 0 100 0 0 29 c0 29 -2 30 -52 33 -46 3 -53 6
-56 26 -3 20 1 22 42 22 44 0 46 1 46 29 0 28 -3 30 -42 33 -35 2 -43 7 -43
23 0 17 8 20 53 23 50 3 52 4 52 33 l0 29 -100 0 -100 0 0 -140z"/>
<path d="M1540 250 l0 -140 90 0 90 0 0 30 c0 29 -2 30 -45 30 l-45 0 0 110 0
110 -45 0 -45 0 0 -140z"/>
<path d="M1750 250 l0 -140 100 0 100 0 0 29 c0 29 -2 30 -52 33 -46 3 -53 6
-56 26 -3 20 1 22 42 22 44 0 46 1 46 29 0 28 -3 30 -42 33 -35 2 -43 7 -43
23 0 17 8 20 53 23 50 3 52 4 52 33 l0 29 -100 0 -100 0 0 -140z"/>
<path d="M2290 360 c0 -28 3 -30 35 -30 l35 0 0 -110 0 -110 45 0 44 0 3 108
3 107 38 3 c34 3 37 6 37 33 l0 29 -120 0 -120 0 0 -30z"/>
<path d="M2560 250 l0 -140 45 0 45 0 0 140 0 140 -45 0 -45 0 0 -140z"/>
<path d="M3030 250 l0 -140 45 0 44 0 3 68 3 67 45 -67 c45 -67 45 -68 93 -68
l47 0 0 140 0 140 -45 0 -44 0 -3 -67 -3 -67 -44 67 -43 67 -49 0 -49 0 0
-140z"/>
<path d="M545 203 c-64 -33 -114 -104 -115 -160 0 -23 1 -23 148 -23 121 0
154 4 187 19 61 27 101 79 119 154 l6 27 -157 0 c-124 -1 -164 -4 -188 -17z"/>
</g>
</svg>
